# xmcd CD database file
#
# Track frame offsets:
#	150
#	19531
#	33310
#	49112
#	67390
#	81768
#	94971
#	100980
#	116233
#	132422
#	146145
#	163985
#	178417
#
# Disc length: 2574 seconds
#
# Revision: 0
# Processed by: cddbd v1.5.2PL0 Copyright (c) Steve Scherf et al.
# Submitted via: CDex 1.51
#
DISCID=c60a0c0d
DTITLE=Susan Wong - A NIGHT AT THE MOVIES
DYEAR=2006
DGENRE=Jazz
TTITLE0=SOMETIMES WHEN WE TOUCH
TTITLE1=FIRST OF MAY
TTITLE2=SMILE
TTITLE3=YOU DON'T KNOW ME
TTITLE4=WHEN I FALL IN LOVE
TTITLE5=A THOUSAND DREAMS OF YOU
TTITLE6=GUITAR INTERLUDE
TTITLE7=AS TIME GOES BY
TTITLE8=MORE
TTITLE9=SWAY
TTITLE10=MEMORY
TTITLE11=IN THE WEE SMALL HOURS OF THE MORNING
TTITLE12=FALLEN
EXTD=YEAR: 2006
EXTT0=
EXTT1=
EXTT2=
EXTT3=
EXTT4=
EXTT5=
EXTT6=
EXTT7=
EXTT8=
EXTT9=
EXTT10=
EXTT11=
EXTT12=
PLAYORDER=
